<svg width="1920" height="1080" xmlns="http://www.w3.org/2000/svg" viewBox="0 0 1920 1080" class="bg-svg">
  <defs>
    <!-- Enhanced Glow effects - Bright and vibrant without blur -->
    <radialGradient id="glow0">
      <stop offset="0%" style="stop-color:#0088cc;stop-opacity:1.0" />
      <stop offset="20%" style="stop-color:#0088cc;stop-opacity:0.95" />
      <stop offset="60%" style="stop-color:#0088cc;stop-opacity:0.6" />
      <stop offset="100%" style="stop-color:#0088cc;stop-opacity:0" />
    </radialGradient>
    <radialGradient id="glow1">
      <stop offset="0%" style="stop-color:#3366ff;stop-opacity:1.0" />
      <stop offset="15%" style="stop-color:#3366ff;stop-opacity:0.98" />
      <stop offset="50%" style="stop-color:#3366ff;stop-opacity:0.7" />
      <stop offset="100%" style="stop-color:#3366ff;stop-opacity:0" />
    </radialGradient>
    <radialGradient id="glow2">
      <stop offset="0%" style="stop-color:#ffcc00;stop-opacity:1.0" />
      <stop offset="10%" style="stop-color:#ffcc00;stop-opacity:0.95" />
      <stop offset="40%" style="stop-color:#ffcc00;stop-opacity:0.8" />
      <stop offset="100%" style="stop-color:#ffcc00;stop-opacity:0" />
    </radialGradient>
    <radialGradient id="glow3">
      <stop offset="0%" style="stop-color:#e67300;stop-opacity:1.0" />
      <stop offset="12%" style="stop-color:#e67300;stop-opacity:0.92" />
      <stop offset="45%" style="stop-color:#e67300;stop-opacity:0.75" />
      <stop offset="100%" style="stop-color:#e67300;stop-opacity:0" />
    </radialGradient>
    
    <!-- Base gradient -->
    <linearGradient id="baseGrad" x1="0%" y1="0%" x2="100%" y2="100%">
      <stop offset="0%" style="stop-color:#f8f9fa;stop-opacity:1" />
      <stop offset="100%" style="stop-color:#f1f3f4;stop-opacity:1" />
    </linearGradient>
    
    <!-- No filters - crisp and vibrant graphics -->
  </defs>
  
  <!-- Base background -->
  <rect width="1920" height="1080" fill="url(#baseGrad)" />
  
  <!-- Art style elements -->
<!-- ECOSISTEMA: OCÉANO PROFUNDO -->
  <rect x="0" y="700" width="1920" height="380" fill="#fafafa" opacity="0.8"/>
  <ellipse cx="300" cy="950" rx="40" ry="120" fill="#ffcc00" opacity="0.9"/>
  <ellipse cx="280" cy="900" rx="25" ry="80" fill="#ffcc00" opacity="0.85"/>
  <ellipse cx="320" cy="920" rx="30" ry="90" fill="#ffcc00" opacity="0.87"/>
  <ellipse cx="900" cy="960" rx="50" ry="140" fill="#3366ff" opacity="0.88"/>
  <ellipse cx="870" cy="910" rx="30" ry="90" fill="#3366ff" opacity="0.83"/>
  <ellipse cx="930" cy="930" rx="35" ry="100" fill="#3366ff" opacity="0.85"/>
  <ellipse cx="1500" cy="970" rx="45" ry="130" fill="#e67300" opacity="0.9"/>
  <ellipse cx="1480" cy="920" rx="28" ry="85" fill="#e67300" opacity="0.86"/>
  <path d="M 200,1080 Q 210,900 200,750 Q 190,600 200,450" stroke="#e67300" stroke-width="8" fill="none" opacity="0.7"/>
  <path d="M 700,1080 Q 715,920 700,780 Q 685,640 700,500" stroke="#ffcc00" stroke-width="10" fill="none" opacity="0.75"/>
  <path d="M 1600,1080 Q 1590,940 1600,800 Q 1610,660 1600,520" stroke="#3366ff" stroke-width="9" fill="none" opacity="0.72"/>
  <ellipse cx="500" cy="400" rx="60" ry="25" fill="#0088cc" opacity="0.9"/>
  <polygon points="440,400 420,390 420,410" fill="#0088cc" opacity="0.9"/>
  <ellipse cx="1200" cy="300" rx="70" ry="30" fill="#ffcc00" opacity="0.85"/>
  <polygon points="1130,300 1105,288 1105,312" fill="#ffcc00" opacity="0.85"/>
  <ellipse cx="800" cy="600" rx="50" ry="20" fill="#3366ff" opacity="0.88"/>
  <polygon points="750,600 730,593 730,607" fill="#3366ff" opacity="0.88"/>
  <circle cx="350" cy="650" r="15" fill="none" stroke="#0088cc" stroke-width="2" opacity="0.6"/>
  <circle cx="370" cy="550" r="12" fill="none" stroke="#0088cc" stroke-width="2" opacity="0.55"/>
  <circle cx="360" cy="450" r="10" fill="none" stroke="#0088cc" stroke-width="1.5" opacity="0.5"/>
  <circle cx="1100" cy="700" r="18" fill="none" stroke="#ffcc00" stroke-width="2" opacity="0.65"/>
  <circle cx="1090" cy="580" r="14" fill="none" stroke="#ffcc00" stroke-width="2" opacity="0.6"/>
  <circle cx="1105" cy="460" r="11" fill="none" stroke="#ffcc00" stroke-width="1.5" opacity="0.55"/>
  <polygon points="400,0 450,0 550,1080 450,1080" fill="#0088cc" opacity="0.15"/>
  <polygon points="1200,0 1250,0 1350,1080 1250,1080" fill="#3366ff" opacity="0.12"/>
</svg>